# xmcd
#
# Track frame offsets:
#	150
#	30139
#	78447
#	124432
#	163324
#	185796
#	206837
#	243795
#	271035
#
# Disc length: 3997 seconds
# Revision: 1
# Processed by: cddbd v1.5.2PL0 Copyright (c) Steve Scherf et al.
# Submitted via: dBpowerAMP V12.0
#
DISCID=770f9b09
DTITLE=Magda Piskorczyk - Afro Groove [dBP-LITE-FLAC+3]
DYEAR=2011
DGENRE=Blues
TTITLE0=Save Us All
TTITLE1=The Kokomo Medley
TTITLE2=I'm A Woman
TTITLE3=Love Everybody
TTITLE4=Mississippi
TTITLE5=One More Time
TTITLE6=Too Much Stuff
TTITLE7=Mansane Cisse
TTITLE8=Cler Achel
EXTD=
EXTT0=
EXTT1=
EXTT2=
EXTT3=
EXTT4=
EXTT5=
EXTT6=
EXTT7=
EXTT8=
PLAYORDER=
